<svg width="200" height="200" viewBox="0 0 200 200" fill="none" xmlns="http://www.w3.org/2000/svg">
<path d="M80.255 32.5C76.0239 17.5 81.7646 0 99.9998 0C118.235 0 123.976 17.5 119.745 32.5C116.765 43.0643 108.888 67.2694 104.49 80.6609C103.68 83.1282 105.316 85.7238 107.566 87.0311C109.815 88.3371 112.814 88.393 114.551 86.4617C123.986 75.9709 141.084 57.062 148.774 49.2057C159.691 38.0534 177.766 34.2589 186.884 49.9998C196.001 65.7408 183.667 79.4467 168.519 83.2942C157.85 86.0041 132.879 91.3076 119.045 94.2069C116.497 94.7409 115.049 97.4047 115.049 100C115.049 102.595 116.497 105.259 119.045 105.793C132.879 108.692 157.85 113.996 168.519 116.706C183.667 120.553 196.001 134.259 186.884 150C177.766 165.741 159.691 161.947 148.774 150.794C141.084 142.938 123.986 124.029 114.551 113.538C112.814 111.607 109.815 111.663 107.566 112.969C105.316 114.276 103.68 116.872 104.49 119.339C108.888 132.731 116.765 156.936 119.745 167.5C123.976 182.5 118.235 200 99.9998 200C81.7646 200 76.0239 182.5 80.255 167.5C83.2352 156.936 91.1117 132.731 95.5102 119.339C96.3199 116.872 94.6838 114.276 92.434 112.969C90.1849 111.663 87.1857 111.607 85.4488 113.538C76.0142 124.029 58.9156 142.938 51.2257 150.794C40.3095 161.947 22.2343 165.741 13.1159 150C3.99853 134.259 16.3329 120.553 31.4806 116.706C42.15 113.996 67.1206 108.692 80.9548 105.793C83.5028 105.259 84.951 102.595 84.951 100C84.951 97.4047 83.5028 94.7409 80.9548 94.2069C67.1206 91.3076 42.15 86.0041 31.4806 83.2942C16.3329 79.4467 3.99853 65.7408 13.1159 49.9998C22.2343 34.2589 40.3095 38.0534 51.2257 49.2057C58.9156 57.062 76.0142 75.9709 85.4488 86.4617C87.1857 88.393 90.1849 88.3371 92.434 87.0311C94.6838 85.7238 96.3199 83.1282 95.5102 80.6609C91.1117 67.2694 83.2352 43.0643 80.255 32.5Z" fill="white"/>
</svg>