<svg width="200" height="200" viewBox="0 0 200 200" fill="none" xmlns="http://www.w3.org/2000/svg">
<g clip-path="url(#clip0_541_3669)">
<path d="M200 50C200 22.3858 177.614 -1.20706e-06 150 0C122.386 1.20706e-06 100 22.3858 100 50C100 22.3858 77.6142 3.16408e-06 50 4.37114e-06C22.3858 6.55671e-06 -2.18557e-06 22.3858 0 50C1.20706e-06 77.6142 22.3858 100 50 100C22.3858 100 3.16408e-06 122.386 4.37114e-06 150C5.5782e-06 177.614 22.3858 200 50 200C77.6142 200 100 177.614 100 150C100 177.614 122.386 200 150 200C177.614 200 200 177.614 200 150C200 122.392 177.625 100.011 150.02 100C177.625 99.9894 200 77.6077 200 50Z" fill="white"/>
</g>
<defs>
<clipPath id="clip0_541_3669">
<rect width="200" height="200" fill="white"/>
</clipPath>
</defs>
</svg>